<svg width="3008" height="3008" viewBox="0 0 3008 3008" fill="none" xmlns="http://www.w3.org/2000/svg">
<g filter="url(#filter0_d_0_1)">
<rect x="70" y="66" width="2868" height="2868" rx="534" fill="white" stroke="#1E1E1E" stroke-width="132"/>
<path d="M469 2878C303.315 2878 169 2743.69 169 2578V2570C169 2404.31 303.315 2270 469 2270L2539 2270C2704.69 2270 2839 2404.31 2839 2570V2578C2839 2743.69 2704.69 2878 2539 2878L469 2878Z" fill="#1E1E1E"/>
</g>
<g filter="url(#filter1_d_0_1)">
<rect x="634" y="293.041" width="366.978" height="1840.07" rx="100" fill="#1E1E1E"/>
<rect x="2007.42" y="293.041" width="366.978" height="1840.07" rx="100" fill="#1E1E1E"/>
<rect width="367.319" height="1838.37" rx="100" transform="matrix(0.818392 -0.574661 0.572492 0.81991 634 470.084)" fill="#1E1E1E"/>
<path d="M1379.02 1895.39C1347.4 1940.67 1285.13 1951.65 1239.93 1919.91L1103 1823.76C1057.8 1792.02 1046.79 1729.59 1078.41 1684.3L2016.36 340.991C2047.98 295.709 2110.25 284.728 2155.45 316.466L2292.38 412.618C2337.58 444.355 2348.59 506.792 2316.97 552.075L1379.02 1895.39Z" fill="#1E1E1E"/>
</g>
<g filter="url(#filter2_df_0_1)">
<rect x="1344" y="2363" width="80" height="80" rx="15" fill="#D9D9D9"/>
<rect x="864" y="2363" width="80" height="80" rx="15" fill="#D9D9D9"/>
<rect x="1104" y="2364" width="80" height="80" rx="15" fill="#D9D9D9"/>
<rect x="1224" y="2363" width="80" height="80" rx="15" fill="#D9D9D9"/>
<rect x="984" y="2364" width="80" height="80" rx="15" fill="#D9D9D9"/>
<rect x="624" y="2363" width="80" height="80" rx="15" fill="#D9D9D9"/>
<rect x="744" y="2364" width="80" height="80" rx="15" fill="#D9D9D9"/>
<rect x="1464" y="2363" width="80" height="80" rx="15" fill="#D9D9D9"/>
<rect x="1944" y="2362" width="80" height="80" rx="15" fill="#D9D9D9"/>
<rect x="2184" y="2363" width="200" height="80" rx="15" fill="#D9D9D9"/>
<rect x="2064" y="2363" width="80" height="80" rx="15" fill="#D9D9D9"/>
<rect x="1704" y="2362" width="80" height="80" rx="15" fill="#D9D9D9"/>
<rect x="1824" y="2363" width="80" height="80" rx="15" fill="#D9D9D9"/>
<rect x="1584" y="2362" width="80" height="80" rx="15" fill="#D9D9D9"/>
<rect x="1079" y="2796" width="700" height="80" rx="15" fill="#D9D9D9"/>
<rect x="1814" y="2798" width="120" height="80" rx="15" fill="#D9D9D9"/>
<rect x="924" y="2798" width="120" height="80" rx="15" fill="#D9D9D9"/>
<rect x="774" y="2796" width="120" height="80" rx="15" fill="#D9D9D9"/>
<rect x="624" y="2796" width="120" height="80" rx="15" fill="#D9D9D9"/>
<rect x="2114" y="2798" width="120" height="80" rx="15" fill="#D9D9D9"/>
<rect x="2264" y="2798" width="120" height="80" rx="15" fill="#D9D9D9"/>
<rect x="1964" y="2798" width="120" height="80" rx="15" fill="#D9D9D9"/>
<rect x="1384" y="2471" width="80" height="80" rx="15" fill="#D9D9D9"/>
<rect x="904" y="2471" width="80" height="80" rx="15" fill="#D9D9D9"/>
<rect x="1144" y="2472" width="80" height="80" rx="15" fill="#D9D9D9"/>
<rect x="1264" y="2471" width="80" height="80" rx="15" fill="#D9D9D9"/>
<rect x="1024" y="2472" width="80" height="80" rx="15" fill="#D9D9D9"/>
<rect x="624" y="2471" width="120" height="80" rx="15" fill="#D9D9D9"/>
<rect x="784" y="2472" width="80" height="80" rx="15" fill="#D9D9D9"/>
<rect x="1504" y="2471" width="80" height="80" rx="15" fill="#D9D9D9"/>
<rect x="1984" y="2470" width="80" height="80" rx="15" fill="#D9D9D9"/>
<rect x="2241" y="2470" width="143" height="80" rx="15" fill="#D9D9D9"/>
<rect x="2104" y="2471" width="80" height="80" rx="15" fill="#D9D9D9"/>
<rect x="1744" y="2470" width="80" height="80" rx="15" fill="#D9D9D9"/>
<rect x="1864" y="2471" width="80" height="80" rx="15" fill="#D9D9D9"/>
<rect x="1624" y="2470" width="80" height="80" rx="15" fill="#D9D9D9"/>
<rect x="1424" y="2579" width="80" height="80" rx="15" fill="#D9D9D9"/>
<rect x="944" y="2579" width="80" height="80" rx="15" fill="#D9D9D9"/>
<rect x="1184" y="2580" width="80" height="80" rx="15" fill="#D9D9D9"/>
<rect x="1304" y="2579" width="80" height="80" rx="15" fill="#D9D9D9"/>
<rect x="1064" y="2580" width="80" height="80" rx="15" fill="#D9D9D9"/>
<rect x="624" y="2579" width="160" height="80" rx="15" fill="#D9D9D9"/>
<rect x="824" y="2580" width="80" height="80" rx="15" fill="#D9D9D9"/>
<rect x="1544" y="2579" width="80" height="80" rx="15" fill="#D9D9D9"/>
<rect x="2024" y="2578" width="80" height="80" rx="15" fill="#D9D9D9"/>
<rect x="2279" y="2532" width="105" height="127" rx="15" fill="#D9D9D9"/>
<rect x="2144" y="2579" width="80" height="80" rx="15" fill="#D9D9D9"/>
<rect x="1784" y="2578" width="80" height="80" rx="15" fill="#D9D9D9"/>
<rect x="1904" y="2579" width="80" height="80" rx="15" fill="#D9D9D9"/>
<rect x="1664" y="2578" width="80" height="80" rx="15" fill="#D9D9D9"/>
<rect x="1464" y="2688" width="80" height="80" rx="15" fill="#D9D9D9"/>
<rect x="984" y="2688" width="80" height="80" rx="15" fill="#D9D9D9"/>
<rect x="1224" y="2689" width="80" height="80" rx="15" fill="#D9D9D9"/>
<rect x="1344" y="2688" width="80" height="80" rx="15" fill="#D9D9D9"/>
<rect x="1104" y="2689" width="80" height="80" rx="15" fill="#D9D9D9"/>
<rect x="744" y="2688" width="80" height="80" rx="15" fill="#D9D9D9"/>
<rect x="864" y="2689" width="80" height="80" rx="15" fill="#D9D9D9"/>
<rect x="624" y="2688" width="80" height="80" rx="15" fill="#D9D9D9"/>
<rect x="1584" y="2688" width="80" height="80" rx="15" fill="#D9D9D9"/>
<rect x="2064" y="2687" width="320" height="80" rx="15" fill="#D9D9D9"/>
<rect x="1824" y="2687" width="80" height="80" rx="15" fill="#D9D9D9"/>
<rect x="1944" y="2688" width="80" height="80" rx="15" fill="#D9D9D9"/>
<rect x="1704" y="2687" width="80" height="80" rx="15" fill="#D9D9D9"/>
</g>
<path d="M2838.54 215.902L2916.5 764L2123.5 0L2838.54 215.902Z" fill="#1E1E1E"/>
<defs>
<filter id="filter0_d_0_1" x="0" y="0" width="3008" height="3008" filterUnits="userSpaceOnUse" color-interpolation-filters="sRGB">
<feFlood flood-opacity="0" result="BackgroundImageFix"/>
<feColorMatrix in="SourceAlpha" type="matrix" values="0 0 0 0 0 0 0 0 0 0 0 0 0 0 0 0 0 0 127 0" result="hardAlpha"/>
<feOffset dy="4"/>
<feGaussianBlur stdDeviation="2"/>
<feComposite in2="hardAlpha" operator="out"/>
<feColorMatrix type="matrix" values="0 0 0 0 0 0 0 0 0 0 0 0 0 0 0 0 0 0 0.25 0"/>
<feBlend mode="normal" in2="BackgroundImageFix" result="effect1_dropShadow_0_1"/>
<feBlend mode="normal" in="SourceGraphic" in2="effect1_dropShadow_0_1" result="shape"/>
</filter>
<filter id="filter1_d_0_1" x="634" y="293.041" width="1799.39" height="1914.07" filterUnits="userSpaceOnUse" color-interpolation-filters="sRGB">
<feFlood flood-opacity="0" result="BackgroundImageFix"/>
<feColorMatrix in="SourceAlpha" type="matrix" values="0 0 0 0 0 0 0 0 0 0 0 0 0 0 0 0 0 0 127 0" result="hardAlpha"/>
<feOffset dx="55" dy="70"/>
<feGaussianBlur stdDeviation="2"/>
<feComposite in2="hardAlpha" operator="out"/>
<feColorMatrix type="matrix" values="0 0 0 0 0 0 0 0 0 0 0 0 0 0 0 0 0 0 0.25 0"/>
<feBlend mode="normal" in2="BackgroundImageFix" result="effect1_dropShadow_0_1"/>
<feBlend mode="normal" in="SourceGraphic" in2="effect1_dropShadow_0_1" result="shape"/>
</filter>
<filter id="filter2_df_0_1" x="615" y="2353" width="1781" height="541" filterUnits="userSpaceOnUse" color-interpolation-filters="sRGB">
<feFlood flood-opacity="0" result="BackgroundImageFix"/>
<feColorMatrix in="SourceAlpha" type="matrix" values="0 0 0 0 0 0 0 0 0 0 0 0 0 0 0 0 0 0 127 0" result="hardAlpha"/>
<feOffset dx="8" dy="12"/>
<feGaussianBlur stdDeviation="2"/>
<feComposite in2="hardAlpha" operator="out"/>
<feColorMatrix type="matrix" values="0 0 0 0 0 0 0 0 0 0 0 0 0 0 0 0 0 0 0.25 0"/>
<feBlend mode="normal" in2="BackgroundImageFix" result="effect1_dropShadow_0_1"/>
<feBlend mode="normal" in="SourceGraphic" in2="effect1_dropShadow_0_1" result="shape"/>
<feGaussianBlur stdDeviation="4.5" result="effect2_foregroundBlur_0_1"/>
</filter>
</defs>
</svg>
